<svg xmlns="http://www.w3.org/2000/svg" xmlns:xlink="http://www.w3.org/1999/xlink" viewBox="0 0 1182.14 461.52"><defs><style>.cls-1,.cls-2{fill:none;}.cls-2{stroke:#000;stroke-linecap:round;stroke-linejoin:round;}.cls-3{isolation:isolate;}.cls-4{mix-blend-mode:multiply;fill:url(#Wave);}</style><pattern id="Wave" data-name="Wave" width="389.01" height="387.4" patternTransform="translate(1561.04)" patternUnits="userSpaceOnUse" viewBox="0 0 389.01 387.4"><rect class="cls-1" width="389.01" height="387.4"/><path class="cls-2" d="M389,419.19c9.39-11.14,99-107.83,206.81,0s176.78,6.62,182.2,0"/><path class="cls-2" d="M0,419.19c9.39-11.14,99-107.83,206.81,0s176.78,6.62,182.2,0"/><path class="cls-2" d="M-389,419.19c9.39-11.14,99-107.83,206.81,0s176.78,6.62,182.2,0"/><path class="cls-2" d="M389,355.62c9.39-11.14,99-107.83,206.81,0s176.78,6.62,182.2,0"/><path class="cls-2" d="M389,322.34c9.39-11.14,99-107.83,206.81,0s176.78,6.62,182.2,0"/><path class="cls-2" d="M389,385.9c9.39-11.15,99-107.84,206.81,0s176.78,6.61,182.2,0"/><path class="cls-2" d="M0,355.62c9.39-11.14,99-107.83,206.81,0s176.78,6.62,182.2,0"/><path class="cls-2" d="M0,322.34c9.39-11.14,99-107.83,206.81,0s176.78,6.62,182.2,0"/><path class="cls-2" d="M0,385.9c9.39-11.15,99-107.84,206.81,0s176.78,6.61,182.2,0"/><path class="cls-2" d="M-389,355.62c9.39-11.14,99-107.83,206.81,0s176.78,6.62,182.2,0"/><path class="cls-2" d="M-389,322.34c9.39-11.14,99-107.83,206.81,0S-5.42,329,0,322.34"/><path class="cls-2" d="M-389,385.9c9.39-11.15,99-107.84,206.81,0s176.78,6.61,182.2,0"/><path class="cls-2" d="M389,258.77c9.39-11.14,99-107.83,206.81,0s176.78,6.62,182.2,0"/><path class="cls-2" d="M389,225.49c9.39-11.14,99-107.83,206.81,0s176.78,6.62,182.2,0"/><path class="cls-2" d="M389,289.05c9.39-11.15,99-107.84,206.81,0s176.78,6.61,182.2,0"/><path class="cls-2" d="M0,258.77c9.39-11.14,99-107.83,206.81,0s176.78,6.62,182.2,0"/><path class="cls-2" d="M0,225.49c9.39-11.14,99-107.83,206.81,0s176.78,6.62,182.2,0"/><path class="cls-2" d="M0,289.05c9.39-11.15,99-107.84,206.81,0s176.78,6.61,182.2,0"/><path class="cls-2" d="M-389,258.77c9.39-11.14,99-107.83,206.81,0s176.78,6.62,182.2,0"/><path class="cls-2" d="M-389,225.49c9.39-11.14,99-107.83,206.81,0s176.78,6.62,182.2,0"/><path class="cls-2" d="M-389,289.05c9.39-11.15,99-107.84,206.81,0s176.78,6.61,182.2,0"/><path class="cls-2" d="M389,161.92c9.39-11.14,99-107.83,206.81,0s176.78,6.62,182.2,0"/><path class="cls-2" d="M389,128.64c9.39-11.14,99-107.83,206.81,0s176.78,6.62,182.2,0"/><path class="cls-2" d="M389,192.2c9.39-11.15,99-107.84,206.81,0s176.78,6.61,182.2,0"/><path class="cls-2" d="M0,161.92c9.39-11.14,99-107.83,206.81,0s176.78,6.62,182.2,0"/><path class="cls-2" d="M0,128.64c9.39-11.14,99-107.83,206.81,0s176.78,6.62,182.2,0"/><path class="cls-2" d="M0,192.2c9.39-11.15,99-107.84,206.81,0s176.78,6.61,182.2,0"/><path class="cls-2" d="M-389,161.92c9.39-11.14,99-107.83,206.81,0s176.78,6.62,182.2,0"/><path class="cls-2" d="M-389,128.64c9.39-11.14,99-107.83,206.81,0s176.78,6.62,182.2,0"/><path class="cls-2" d="M-389,192.2c9.39-11.15,99-107.84,206.81,0s176.78,6.61,182.2,0"/><path class="cls-2" d="M389,65.07c9.39-11.14,99-107.83,206.81,0s176.78,6.62,182.2,0"/><path class="cls-2" d="M389,31.79c9.39-11.14,99-107.83,206.81,0s176.78,6.62,182.2,0"/><path class="cls-2" d="M389,95.35c9.39-11.15,99-107.84,206.81,0S772.6,102,778,95.35"/><path class="cls-2" d="M0,65.07c9.39-11.14,99-107.83,206.81,0s176.78,6.62,182.2,0"/><path class="cls-2" d="M0,31.79C9.39,20.65,99-76,206.81,31.79s176.78,6.62,182.2,0"/><path class="cls-2" d="M0,95.35c9.39-11.15,99-107.84,206.81,0s176.78,6.61,182.2,0"/><path class="cls-2" d="M-389,65.07c9.39-11.14,99-107.83,206.81,0S-5.42,71.69,0,65.07"/><path class="cls-2" d="M-389,31.79c9.39-11.14,99-107.83,206.81,0S-5.42,38.41,0,31.79"/><path class="cls-2" d="M-389,95.35c9.39-11.15,99-107.84,206.81,0S-5.42,102,0,95.35"/><path class="cls-2" d="M389-31.78c9.39-11.14,99-107.83,206.81,0s176.78,6.62,182.2,0"/><path class="cls-2" d="M389-1.5c9.39-11.15,99-107.84,206.81,0S772.6,5.11,778-1.5"/><path class="cls-2" d="M0-31.78c9.39-11.14,99-107.83,206.81,0s176.78,6.62,182.2,0"/><path class="cls-2" d="M0-1.5c9.39-11.15,99-107.84,206.81,0S383.59,5.11,389-1.5"/><path class="cls-2" d="M-389-31.78c9.39-11.14,99-107.83,206.81,0S-5.42-25.16,0-31.78"/><path class="cls-2" d="M-389-1.5c9.39-11.15,99-107.84,206.81,0S-5.42,5.11,0-1.5"/></pattern></defs><title>wave-sec-3</title><g class="cls-3"><g id="Layer_2" data-name="Layer 2"><g id="Desktop_-_Home_Page_Design" data-name="Desktop - Home Page Design"><g id="Meet_Our_Heroes" data-name="Meet Our Heroes"><path id="Wave_Pattern_-_2" data-name="Wave Pattern - 2" class="cls-4" d="M1158.68,164.88,0,461.52v-334L1148,.18a30.88,30.88,0,0,1,34.18,30.7v104A30.88,30.88,0,0,1,1158.68,164.88Z"/></g></g></g></g></svg>